<svg version="1.1" xmlns="http://www.w3.org/2000/svg" xmlns:xlink="http://www.w3.org/1999/xlink" width="512px" height="512px" viewBox="0,0,256,256"><g fill="#ffffff" fill-rule="nonzero" stroke="none" stroke-width="1" stroke-linecap="butt" stroke-linejoin="miter" stroke-miterlimit="10" stroke-dasharray="" stroke-dashoffset="0" font-family="none" font-weight="none" font-size="none" text-anchor="none" style="mix-blend-mode: normal"><g transform="scale(0.5,0.5)"><path d="M77,58.22266c-16.56078,0.01874 -29.98126,13.43922 -30,30v228.22265c0.01874,16.56078 13.43922,29.98126 30,30h358c16.56078,-0.01874 29.98126,-13.43922 30,-30v-228.22265c-0.01874,-16.56078 -13.43922,-29.98126 -30,-30zM85.66797,81.48047h340.66601c5.52285,0 10,4.47715 10,10v216.30078l-0.00195,-0.00391c0,5.52285 -4.47715,10 -10,10h-340.66406c-5.52285,0 -10,-4.47715 -10,-10v-216.29687c0,-5.52285 4.47715,-10 10,-10zM95.66797,101.48047v196.29687h320.66601v-196.29687zM193,366.44336v37.33398h120.59375v-37.33398zM128.11133,423.77734v30h255.77734v-30z"></path></g></g></svg>