<svg xmlns="http://www.w3.org/2000/svg" version="1.1" xmlns:xlink="http://www.w3.org/1999/xlink" width="512" height="512" x="0" y="0" viewBox="0 0 512 512" style="enable-background:new 0 0 512 512" xml:space="preserve" class=""><g><path fill-rule="evenodd" d="M236.383 394.871H198.07l11.057-26.674h38.314zM94.274 375.117h98.086l6.552-15.79a6.419 6.419 0 0 1 5.928-3.96h11.5v-60.616l-28.684-28.687H94.274v32.422h10.515a6.413 6.413 0 0 1 5.111 2.539l16.938 22.31a6.449 6.449 0 0 1 0 7.76l-16.933 22.314a6.423 6.423 0 0 1-5.113 2.538H94.274zm-32.231-47.9 12.063-15.9h27.5l12.065 15.9-12.065 15.9H74.108zm160.713-90.932 23.366 23.362-23.366 23.372-23.367-23.372zm-115.213-33.43H68.17v-26.673h39.373zm186.9 172.262h-35.98l4.509-10.88a6.419 6.419 0 0 0-5.929-8.876h-27.869v-60.61l30.561-30.562a6.445 6.445 0 0 0 0-9.076l-30.561-30.562v-35.027a6.419 6.419 0 0 0-6.418-6.418H120.378v-13.342a6.419 6.419 0 0 0-6.418-6.418H61.752a6.419 6.419 0 0 0-6.417 6.418v39.51a6.419 6.419 0 0 0 6.418 6.417h52.207a6.419 6.419 0 0 0 6.418-6.417v-13.338h95.961v28.61l-28.684 28.682h-99.8a6.42 6.42 0 0 0-6.417 6.415v38.834H70.922a6.418 6.418 0 0 0-5.111 2.538l-16.935 22.32a6.449 6.449 0 0 0 0 7.759l16.935 22.314a6.418 6.418 0 0 0 5.112 2.538h10.516v25.588a6.419 6.419 0 0 0 6.418 6.417h99.186c-1.15 2.776-5 10.764-5 13.336a6.42 6.42 0 0 0 6.417 6.419h52.207a6.423 6.423 0 0 0 5.93-3.961l6.547-15.795h41.3a6.418 6.418 0 1 0 0-12.835zM56.614 63.959v-.007a6.425 6.425 0 1 1 6.443 6.425h-.025a6.419 6.419 0 0 1-6.412-6.418zm35.21 0v-.007a6.425 6.425 0 1 1 6.442 6.425h-.025a6.419 6.419 0 0 1-6.415-6.418zm35.209 0v-.007a6.425 6.425 0 1 1 6.442 6.425h-.025a6.419 6.419 0 0 1-6.417-6.418zm40.962 0a6.419 6.419 0 0 1 6.418-6.417h251.134a6.418 6.418 0 1 1 0 12.835H174.413A6.419 6.419 0 0 1 168 63.959zm323.226 412.317c-4.283 2.556-14.392 9.715-18.992 9.715a9.833 9.833 0 0 1-8.438-4.784l-33.109-55.479a9.88 9.88 0 0 1 3.4-13.464l13.962-8.332a9.862 9.862 0 0 1 13.467 3.4l33.107 55.476a9.747 9.747 0 0 1 1.381 5 9.879 9.879 0 0 1-4.779 8.469zM385.492 358.98a86.22 86.22 0 1 1 39.743-21.937 6.512 6.512 0 0 0-.835 8.265 9.822 9.822 0 0 1-3.394 13.466c-4.284 2.556-14.39 9.716-18.992 9.716a9.844 9.844 0 0 1-8.438-4.783c-1.885-3.208-3.967-5.734-8.084-4.727zm42.622 41.893-13.693-23.239 12.554-7.487 13.694 23.239zM36.6 453.081h395.462l-12.4-20.776a22.8 22.8 0 0 1-.756-21.775l-17.227-29.23a22.687 22.687 0 0 1-17.649-8.873 98.883 98.883 0 0 1-18.667 1.785h-.063a100.222 100.222 0 0 1-37.822-7.432A99.036 99.036 0 1 1 437.4 342.967a22.7 22.7 0 0 1-1.2 17.55l17.221 29.223a22.721 22.721 0 0 1 19.113 11.015l.055.09V109.083H16v321.454c0 12.426 9.242 22.544 20.6 22.544zm0-427.072c-11.358 0-20.6 10.114-20.6 22.544v47.7h456.587v-47.7c0-12.426-9.242-22.544-20.6-22.544zm269.652 249.185a58.922 58.922 0 1 0 58.922-58.922 58.933 58.933 0 0 0-58.922 58.922zm130.672.055a71.71 71.71 0 1 1-71.71-71.709 71.826 71.826 0 0 1 71.71 71.709z" fill="#ffffff" opacity="1" class=""></path></g></svg>