<svg xmlns="http://www.w3.org/2000/svg" version="1.1" width="512" height="512" x="0" y="0" viewBox="0 0 66 66" style="enable-background:new 0 0 512 512" xml:space="preserve" class=""><g><path d="m41.5 38.8.5-5.6h.3c.4 0 .8-.1 1.2-.4 2-1.4 3.3-3.3 4.3-5.2-.7-2-1.6-3.9-2.3-5.5-1.8 8-6.1 7-5 9.8l-1.1-.1c.1.2 0 3.6-.7 6.9h2.8zM27.9 9.2h1.3l-.6 1.8 3.3-1.8h4.9c.6 0 1-.5 1-1V2c0-.6-.5-1.1-1-1.1H28c-.6 0-1.1.5-1.1 1.1v6.1c0 .6.4 1.1 1 1.1zM13.2 20.6v5.7c0 .5.4 1 1 1h4.5l3 1.7-.6-1.7h1.2c.5 0 1-.4 1-1v-5.7c0-.5-.4-1-1-1h-8.2c-.5 0-.9.5-.9 1zM4.2 14.6h7l4.7 2.6-1-2.6h1.9c.8 0 1.5-.7 1.5-1.5V4.2c0-.8-.7-1.5-1.5-1.5H4.2c-.8 0-1.5.7-1.5 1.5v8.9c0 .8.7 1.5 1.5 1.5zM2.4 44v2.1h1v18.6h1.9V46.1H18c.2-.8.7-1.6 1.4-2.1zM48.5 44H37.3v.1c.2 1.9-1.1 3.7-3.1 4.2l-7.8 1.9.2 1.3h1.1L30 64.2l1-.2-2.3-12.6h7.6L34 64l1 .2 2.3-12.8h2l2.3 12.8 1-.2-2.3-12.6h.1l.2-5.3h3.2V65h2V46.1h2.7zM21.8 38.8v-1.2h-7.9L11.2 30c-.1-.2-.2-.3-.4-.3H.6c-.3 0-.5.3-.4.6l3.2 8.5zM6.7 32.9c.5 0 .9.4.9.9s-.4.9-.9.9-1-.4-1-.9.4-.9 1-.9zM32.3 26c-3.1 0-5.7 2.4-6 5.4l3.8-2.1c1.4-.8 3.3-.3 4.1 1.2.8 1.4.3 3.3-1.1 4.1-5.2 2.9-7.4 4.3-8 4.3h12.5c.7-3.4.8-6.7.7-7-.1-3.3-2.7-5.9-6-5.9z" fill="#ffffff" opacity="1" class=""></path><path d="M25.3 49.4s9.4-1.7 10.5-3.3c.4-.6.6-1.4.5-2.1H22c-.1.1-3.6.4-3.1 3.6l2.3 15c.2 1.6 1.7 2.7 3.4 2.5 1.6-.3 2.8-1.8 2.5-3.4zM62.4 31.8c-3.2 1.6-5.6-1.7-4.2-4.1.9-1.5 1.6-2.8 1.9-3.8-1-2.7-2.1-5.4-3.1-7.4.4.1.9.2 1.3.3 1.3.4 2.4 1 3 2 .1.1.1.3.2.4 1.1 2.5-1 6.7-2.4 9-1.4 2.2 2 4.4 3.4 2.1 6.7-11.2 2.6-17.6-7.7-18.2-1.6-.1-2.9 0-3.2 0-1-.1-2.1.1-3.1.7-2.8 1.5-4 4.8-2.8 7.6.1.2.1.3.2.5.7 1.4 1.6 3.3 2.4 5.3 1 2.5 1.9 5.3 2.3 7.5.6 3.1 3.5 5 6.2 4.8v1c-1.3.2-3.5-.4-5-1.8l-5.6 18.8c-.5 1.6.4 3.3 2 3.7 1.5.5 3.3-.4 3.7-2l5-16.7.9 17.5c.1 1.8 1.9 3.1 3.1 2.8 1.7-.1 2.9-1.5 2.9-3.1-1.3-25.8-1.3-26-1.4-26.9z" fill="#ffffff" opacity="1" class=""></path><circle cx="45.5" cy="6.7" r="5.7" fill="#ffffff" opacity="1" class=""></circle><circle cx="31.9" cy="18.8" r="5.7" fill="#ffffff" opacity="1" class=""></circle><path d="M49.8 42.8v-3H.5v3zM18.4 30.4c-.7.8-.7 2.1.2 2.8 4.2 3.5 5.2 5.4 7 4.4l7-3.9c1-.5 1.3-1.8.8-2.7-.5-1-1.8-1.3-2.7-.8-.1.1-6.2 3.5-5.8 3.3l-3.6-3.2c-.9-.8-2.2-.7-2.9.1z" fill="#ffffff" opacity="1"  class=""></path></g></svg>