<svg xmlns="http://www.w3.org/2000/svg" version="1.1" xmlns:xlink="http://www.w3.org/1999/xlink" width="512" height="512" x="0" y="0" viewBox="0 0 512.334 512.334" style="enable-background:new 0 0 512 512" xml:space="preserve" class=""><g><path fill="#ffffff" d="M192.841 475.167a14.97 14.97 0 0 1-11.523-5.388L115.5 390.936 49.682 469.78c-5.31 6.359-14.769 7.21-21.128 1.902-6.359-5.309-7.211-14.768-1.902-21.128l77.333-92.637a15 15 0 0 1 23.03 0l77.333 92.637c5.309 6.36 4.457 15.819-1.902 21.128a14.94 14.94 0 0 1-9.605 3.485z" opacity="1" class=""></path><path fill="#ffffff" d="M474.175 475.167a14.965 14.965 0 0 1-11.522-5.388l-65.819-78.844-65.818 78.844c-5.308 6.359-14.769 7.21-21.127 1.902-6.36-5.309-7.212-14.768-1.902-21.128l77.333-92.637a14.998 14.998 0 0 1 23.03 0l77.334 92.637c5.31 6.359 4.458 15.819-1.902 21.128a14.946 14.946 0 0 1-9.607 3.486z" opacity="1" class=""></path><path fill="#ffffff" d="m451.689 184.22-185.8-150.482-.032-.027c-3.056-2.591-7.128-3.862-11.115-3.481a15.182 15.182 0 0 0-8.276 3.491L61.685 183.378c-6.438 5.214-7.43 14.659-2.216 21.097a14.97 14.97 0 0 0 11.666 5.56c3.316 0 6.654-1.094 9.431-3.344L214.074 98.56 102.128 333.208c-3.567 7.477-.397 16.43 7.079 19.997a14.934 14.934 0 0 0 6.449 1.465c5.601 0 10.976-3.152 13.548-8.544L256.167 80.003 383.13 346.126c2.572 5.393 7.946 8.544 13.549 8.544 2.164 0 4.364-.471 6.448-1.465 7.477-3.567 10.646-12.52 7.079-19.997L298.26 98.561l134.548 108.972a14.934 14.934 0 0 0 9.432 3.344c4.369 0 8.701-1.9 11.665-5.56 5.214-6.438 4.222-15.883-2.216-21.097z" opacity="1" class=""></path><path fill="#ffffff" d="m451.689 184.22-185.8-150.482-.032-.027c-2.692-2.282-6.173-3.54-9.69-3.547v49.84-.001L383.13 346.126c2.572 5.393 7.946 8.544 13.549 8.544 2.164 0 4.364-.471 6.448-1.465 7.477-3.567 10.646-12.52 7.079-19.997L298.26 98.561l134.548 108.972a14.934 14.934 0 0 0 9.432 3.344c4.369 0 8.701-1.9 11.665-5.56 5.214-6.438 4.222-15.883-2.216-21.097z" opacity="1" class=""></path><circle cx="45.167" cy="216.689" r="45" fill="#ffffff" opacity="1" class=""></circle><path fill="#ffffff" d="M467.167 171.689c-24.813 0-45.001 20.187-45.001 45s20.188 45 45.001 45 45-20.187 45-45-20.187-45-45-45z" opacity="1" class=""></path><circle cx="175.667" cy="216.689" r="45" fill="#ffffff" transform="rotate(-67.48 175.743 216.652)" opacity="1" class=""></circle><path fill="#ffffff" d="M336.667 171.689c-24.813 0-45.001 20.187-45.001 45s20.188 45 45.001 45 45-20.187 45-45-20.187-45-45-45z" opacity="1" class=""></path><g fill="#02f2c8"><circle cx="116.168" cy="353.03" r="45" transform="rotate(-13.34 115.698 352.721)" fill="#ffffff" opacity="1" class=""></circle><circle cx="186" cy="467.167" r="45" fill="#ffffff" opacity="1" class=""></circle><circle cx="45" cy="467.167" r="45" transform="rotate(-45 44.919 467.21)" fill="#ffffff" opacity="1" class=""></circle></g><path fill="#ffffff" d="M396.833 307.029c-24.813 0-45 20.187-45 45s20.187 45 45 45 45.001-20.187 45.001-45-20.188-45-45.001-45zM467.334 422.167c-24.813 0-45.001 20.187-45.001 45s20.188 45 45.001 45 45-20.187 45-45-20.187-45-45-45zM326.334 422.167c-24.813 0-45.001 20.187-45.001 45s20.188 45 45.001 45 45-20.187 45-45-20.187-45-45-45z" opacity="1" class=""></path><circle cx="256.167" cy="45.167" r="45" fill="#ffffff" transform="rotate(-45 256.177 45.218)" opacity="1" class=""></circle><path fill="#ffffff" d="M256.167.167v90c24.813 0 45-20.187 45-45s-20.187-45-45-45z" opacity="1" class=""></path></g></svg>