<svg xmlns="http://www.w3.org/2000/svg" version="1.1" xmlns:xlink="http://www.w3.org/1999/xlink" width="512" height="512" x="0" y="0" viewBox="0 0 512 512" style="enable-background:new 0 0 512 512" xml:space="preserve" class=""><g transform="matrix(0.9999999999999998,0,0,0.9999999999999998,5.684341886080802e-14,5.684341886080802e-14)"><path d="M91 71v70c0 13.785 11.215 25 25 25h39.95c13.785 0 25-11.215 25-25V71c0-13.785-11.215-25-25-25H116c-13.785 0-25 11.215-25 25zm30 5h29.95v60H121zM156 196h-40c-13.785 0-25 11.215-25 25v70c0 13.785 11.215 25 25 25h40c13.785 0 25-11.215 25-25v-70c0-13.785-11.215-25-25-25zm-5 90h-30v-60h30zM155.975 346h-39.95c-13.785 0-25 11.215-25 25v70c0 13.785 11.215 25 25 25h39.95c13.785 0 25-11.215 25-25v-70c0-13.785-11.215-25-25-25zm-5 90h-29.95v-60h29.95zM275.975 346h-39.95c-13.785 0-25 11.215-25 25v70c0 13.785 11.215 25 25 25h39.95c13.785 0 25-11.215 25-25v-70c0-13.785-11.215-25-25-25zm-5 90h-29.95v-60h29.95zM236.025 166h39.95c13.785 0 25-11.215 25-25V71c0-13.785-11.215-25-25-25h-39.95c-13.785 0-25 11.215-25 25v70c0 13.785 11.215 25 25 25zm5-90h29.95v60h-29.95zM356 316h40c13.785 0 25-11.215 25-25v-70c0-13.785-11.215-25-25-25h-40c-13.785 0-25 11.215-25 25v70c0 13.785 11.215 25 25 25zm5-90h30v60h-30zM356.025 166h39.95c13.785 0 25-11.215 25-25V71c0-13.785-11.215-25-25-25h-39.95c-13.785 0-25 11.215-25 25v70c0 13.785 11.215 25 25 25zm5-90h29.95v60h-29.95zM422.95 441v-70c0-13.785-11.215-25-25-25H358c-13.785 0-25 11.215-25 25v70c0 13.785 11.215 25 25 25h39.95c13.785 0 25-11.215 25-25zm-30-5H363v-60h29.95z" fill="#ffffff" opacity="1" class=""></path><path d="M90 482H61V30h29c8.284 0 15-6.716 15-15S98.284 0 90 0H46c-8.284 0-15 6.716-15 15v482c0 8.284 6.716 15 15 15h44c8.284 0 15-6.716 15-15s-6.716-15-15-15zM466 0h-46c-8.284 0-15 6.716-15 15s6.716 15 15 15h31v452h-31c-8.284 0-15 6.716-15 15s6.716 15 15 15h46c8.284 0 15-6.716 15-15V15c0-8.284-6.716-15-15-15zM286 286h-15v-75c0-8.284-6.716-15-15-15h-30.05c-8.284 0-15 6.716-15 15s6.716 15 15 15H241v60h-14.95c-8.284 0-15 6.716-15 15s6.716 15 15 15H286c8.284 0 15-6.716 15-15s-6.716-15-15-15z" fill="#ffffff" opacity="1" class=""></path></g></svg>