<svg xmlns="http://www.w3.org/2000/svg" version="1.1" xmlns:xlink="http://www.w3.org/1999/xlink" xmlns:svgjs="http://svgjs.com/svgjs" width="512" height="512" x="0" y="0" viewBox="0 0 512 512" style="enable-background:new 0 0 512 512" xml:space="preserve" class=""><g><g fill-rule="evenodd" clip-rule="evenodd"><path fill="#ffffff" d="m34.68 408.691 395.646-228.426a7.966 7.966 0 0 1 7.937 13.813L42.649 422.486l20.881 2.93a7.982 7.982 0 0 1-2.188 15.812l-43.834-6.15a7.982 7.982 0 0 1-6.204-11.141l16.483-40.77a7.979 7.979 0 1 1 14.812 5.938z" data-original="#ffe177" opacity="1" class=""></path><path fill="#ffffff" d="M469.352 422.486 73.738 194.078a7.967 7.967 0 0 1 7.937-13.813l395.646 228.426-7.919-19.587a7.98 7.98 0 0 1 14.812-5.938l16.591 41.036a7.98 7.98 0 0 1-6.312 10.874l-43.834 6.152a7.982 7.982 0 0 1-2.188-15.812z" data-original="#6cf5c2" class="" opacity="1"></path><path fill="#ffffff" d="M264.001 39.179v456.806a8 8 0 0 1-16 0V39.179l-12.962 16.598a7.971 7.971 0 0 1-12.563-9.813l27.243-34.886a7.97 7.97 0 0 1 12.655.119l27.151 34.767a7.972 7.972 0 0 1-12.563 9.813z" data-original="#fe646f" class="" opacity="1"></path><circle cx="256.001" cy="290.109" r="76.105" fill="#ffffff" transform="rotate(-45 255.967 290.177)" data-original="#8ac9fe" class="" opacity="1"></circle><path fill="#ffffff" d="M256.001 214.005c42.031 0 76.104 34.073 76.104 76.104s-34.073 76.104-76.104 76.104c-2.086 0-4.151-.087-6.194-.252 39.134-3.152 69.91-35.907 69.91-75.852s-30.776-72.7-69.91-75.852a76.913 76.913 0 0 1 6.194-.252z" data-original="#60b7ff" class="" opacity="1"></path></g></g></svg>