<svg xmlns="http://www.w3.org/2000/svg" version="1.1" xmlns:xlink="http://www.w3.org/1999/xlink" xmlns:svgjs="http://svgjs.com/svgjs" width="24" height="24" x="0" y="0" viewBox="0 0 512 512" style="enable-background:new 0 0 512 512" xml:space="preserve" class=""><g><path d="M60.863 270v212h-30v30h450v-30h-30V270zm145.606 140.395-21.211 21.211L144.652 391l40.605-40.605 21.211 21.211L187.074 391zm32.812 47.314-26.836-13.418 60-120 26.836 13.418zm87.188-26.104-21.211-21.211L324.652 391l-19.395-19.395 21.211-21.211L367.074 391z" fill="#ffffff" data-original="#000000" class="" opacity="1"></path><circle cx="255.863" cy="90" r="90" fill="#ffffff" data-original="#000000" class="" opacity="1"></circle><path d="M345.863 180h-180c-36.216 0-66.513 25.809-73.482 60h326.964c-6.969-34.191-37.265-60-73.482-60z" fill="#ffffff" data-original="#000000" class="" opacity="1"></path></g></svg>