<svg xmlns="http://www.w3.org/2000/svg" version="1.1" xmlns:xlink="http://www.w3.org/1999/xlink" xmlns:svgjs="http://svgjs.com/svgjs" width="24" height="24" x="0" y="0" viewBox="0 0 512 512" style="enable-background:new 0 0 512 512" xml:space="preserve" class=""><g><path d="M238.368 52.222H406.86v276.919H238.368z" style="stroke-width: 31; stroke-linecap: round; stroke-linejoin: round; stroke-miterlimit: 10;" transform="rotate(-45.001 322.614 190.686)" fill="none" stroke="#ffffff" stroke-width="31" stroke-linecap="round" stroke-linejoin="round" stroke-miterlimit="10" data-original="#000000" class="" opacity="1"></path><path d="M30.358 495.704h441.061c13.682 0 20.534-16.542 10.86-26.217L41.217 28.426C31.542 18.751 15 25.603 15 39.286v441.061c0 8.481 6.876 15.357 15.358 15.357zM254.807 258.489l-57.764 57.764" style="stroke-width: 31; stroke-linecap: round; stroke-linejoin: round; stroke-miterlimit: 10;" fill="none" stroke="#ffffff" stroke-width="31" stroke-linecap="round" stroke-linejoin="round" stroke-miterlimit="10" data-original="#000000" class="" opacity="1"></path><path d="M224.858 320.909h-32.471v-32.471M222.297 78.716l-57.765-57.764M159.877 48.767V16.296h32.47M434.58 290.999l57.764 57.765M497 320.949v32.47h-32.471" style="stroke-width: 31; stroke-linecap: round; stroke-linejoin: round; stroke-miterlimit: 10;" fill="none" stroke="#ffffff" stroke-width="31" stroke-linecap="round" stroke-linejoin="round" stroke-miterlimit="10" data-original="#000000" class="" opacity="1"></path></g></svg>