<svg xmlns="http://www.w3.org/2000/svg" version="1.1" xmlns:xlink="http://www.w3.org/1999/xlink" xmlns:svgjs="http://svgjs.com/svgjs" width="24" height="24" x="0" y="0" viewBox="0 0 65 65" style="enable-background:new 0 0 512 512" xml:space="preserve" class=""><g><path d="M46.6 54.1h-6.3v-3.4H24.6v3.4h-6.3c-2.2 0-3.9 1.8-3.9 3.9s1.8 3.9 3.9 3.9h28.2c2.1 0 3.9-1.8 3.9-3.9s-1.6-3.9-3.8-3.9zM41.6 19.3c-.3 0-.6-.1-.8-.4-.2-.2-.2-.3-.3-.5s-.2-.5-.5-1.2c-.2-.4-.2-.8.1-1.2l1.8-1.9-2.7-2.6-1.8 1.9c-.3.3-.8.4-1.2.2-.5-.2-1-.4-1.4-.5s-.7-.5-.7-.9L34 9.7l-3.8.1.1 2.6c0 .4-.3.9-.7 1s-.8.3-1.3.6c-.4.2-.9.2-1.2-.1l-1.9-1.8-2.6 2.7 1.9 1.8c.3.3.4.8.2 1.1-.2.5-.4.9-.5 1.4-.1.4-.5.7-.9.7l-2.6.1.1 3.8 2.6-.1c.5 0 .9.3 1 .7.2.4.3.9.6 1.4.2.4.1.8-.2 1.2L23 28.8l2.7 2.6 1.8-1.9c.2-.2.5-.3.7-.3.1 0 .3 0 .4.1.5.2 1 .4 1.4.5s.7.5.7.9l.1 2.6 3.8-.1-.1-2.6c0-.4.3-.8.7-1 .5-.2.9-.4 1.4-.6.4-.2.8-.2 1.2.1l1.9 1.8 2.6-2.7-1.9-1.8c-.3-.3-.4-.8-.2-1.2.3-.6.5-1.1.5-1.4.1-.4.5-.7.9-.8l2.6-.1c0-.8-.1-2-.1-3.8zm-5.1 6.9c-4.2 3.5-10.7.3-10.2-5.3.3-3.4 3.3-6 6.8-5.7 5.5.5 7.6 7.5 3.4 11z" fill="#ffffff" data-original="#000000" opacity="1" class=""></path><path d="M32.5 17.2c-5.4 0-5.7 8-.4 8.4 1.1.1 2.2-.2 3.1-1 3-2.4 1.2-7.4-2.7-7.4z" fill="#ffffff" data-original="#000000" opacity="1" class=""></path><path d="M59.6 3.1H5.4C2.7 3.1.5 5.3.5 8v32.1h64V8c0-2.7-2.2-4.9-4.9-4.9zM45.8 24.9c-.2.1-.4.1-.7.1l-2.7.1c0 .1-.1.2-.1.3l2.1 2c.2.2.3.4.3.7s-.1.5-.3.7l-4 4.2c-.4.4-1 .4-1.4 0l-2.1-2c-.1 0-.2.1-.3.1l.1 2.9c0 .3-.1.5-.3.7s-.4.3-.7.3l-5.7.3c-.5 0-1-.4-1-1l-.1-2.8c-.1 0-.2-.1-.4-.1l-2 2.1c-.4.4-1 .4-1.4 0l-4.1-4c-.2-.2-.3-.4-.3-.7s.1-.5.3-.7l2-2.1c-.1-.1-.1-.2-.2-.3l-2.9.1c-.6 0-1-.4-1-1l-.2-5.8c0-.5.4-1 1-1h.2l2.6-.1c0-.1.1-.2.1-.3l-2.1-2c-.2-.2-.3-.5-.3-.7 0-.3.1-.5.3-.7 0-.1.1-.1.1-.1l3.8-4.1c.4-.4 1-.4 1.4 0l2.1 2c.1 0 .2-.1.3-.2l-.1-2.9c0-.3.1-.5.3-.7s.4-.3.7-.3l5.9-.2c.5 0 1 .4 1 1l.1 2.9c.1 0 .2.1.4.1l2-2.1c.4-.4 1-.4 1.4 0l4.2 3.9c.4.4.4 1 0 1.4l-2 2.1c.1.1.1.3.2.4l2.9-.1c.5 0 1 .4 1 1v.2c0 .9.1 5.2.2 5.6-.1.2-.3.6-.6.8zM.5 43.8c0 2.7 2.2 4.9 4.9 4.9h54.3c2.7 0 4.9-2.2 4.9-4.9v-1.7H.6v1.7z" fill="#ffffff" data-original="#000000" opacity="1" class=""></path></g></svg>