<svg xmlns="http://www.w3.org/2000/svg" version="1.1" width="512" height="512" x="0" y="0" viewBox="0 0 512.003 512.003" style="enable-background:new 0 0 512 512" xml:space="preserve" class=""><g><path d="M256.002 512.002c22.118 0 41.216-13.131 49.941-32h-99.882c8.725 18.869 27.823 32 49.941 32zM241.002 380.002V258.694c-34.192-6.039-60-32.302-60-63.692 0-8.284 6.716-15 15-15s15 6.716 15 15c0 15.209 12.541 28.177 30 32.993V10.254a64.812 64.812 0 0 0-35-10.252c-31.545 0-58.453 22.777-63.934 53.518-36.123 10.564-61.066 43.603-61.066 81.482 0 20.254 7.17 39.61 20.284 55-13.113 15.39-20.284 34.746-20.284 55 0 37.88 24.943 70.918 61.066 81.482 5.48 30.74 32.389 53.518 63.934 53.518zM181.002 425.002c0 13.807 11.193 25 25 25h100c13.807 0 25-11.193 25-25v-15h-150zM369.935 53.519C364.455 22.779 337.547.001 306.001.001a64.812 64.812 0 0 0-35 10.252V121.31c34.192 6.039 60 32.302 60 63.692 0 8.284-6.716 15-15 15s-15-6.716-15-15c0-15.209-12.541-28.177-30-32.993v227.993h35c31.545 0 58.454-22.777 63.934-53.518 36.123-10.564 61.066-43.603 61.066-81.482 0-20.254-7.17-39.61-20.283-55 13.113-15.39 20.283-34.746 20.283-55 .001-37.88-24.943-70.918-61.066-81.483zM467.015 85.004c-4.847 0-9.604-2.346-12.495-6.682-4.595-6.893-2.732-16.206 4.161-20.801l30-20c6.892-4.597 16.206-2.733 20.801 4.16s2.732 16.206-4.161 20.801l-30 20a14.925 14.925 0 0 1-8.306 2.522zM496.988 335.004a14.93 14.93 0 0 1-8.307-2.521l-30-20c-6.893-4.595-8.756-13.908-4.161-20.801 4.596-6.894 13.91-8.755 20.801-4.16l30 20c6.893 4.595 8.756 13.908 4.161 20.801-2.89 4.335-7.647 6.681-12.494 6.681zM44.988 85.004a14.93 14.93 0 0 1-8.307-2.521l-30-20C-.212 57.888-2.075 48.575 2.52 41.682c4.596-6.894 13.91-8.756 20.801-4.16l30 20c6.893 4.595 8.756 13.908 4.161 20.801-2.89 4.335-7.647 6.681-12.494 6.681zM15.015 335.004c-4.847 0-9.604-2.346-12.495-6.682-4.595-6.893-2.732-16.206 4.161-20.801l30-20c6.892-4.597 16.206-2.733 20.801 4.16s2.732 16.206-4.161 20.801l-30 20a14.925 14.925 0 0 1-8.306 2.522zM45.002 200.002h-30c-8.284 0-15-6.716-15-15s6.716-15 15-15h30c8.284 0 15 6.716 15 15s-6.716 15-15 15zM497.002 200.002h-30c-8.284 0-15-6.716-15-15s6.716-15 15-15h30c8.284 0 15 6.716 15 15s-6.716 15-15 15z" fill="#ffffff" opacity="1" class=""></path></g></svg>