<svg xmlns="http://www.w3.org/2000/svg" version="1.1" xmlns:xlink="http://www.w3.org/1999/xlink" width="512" height="512" x="0" y="0" viewBox="0 0 512 512" style="enable-background:new 0 0 512 512" xml:space="preserve" class=""><g><path d="M511.705 85.464c-1.522-14.832-8.723-28.183-20.274-37.595-11.558-9.417-26.092-13.763-40.911-12.238-30.591 3.147-52.921 30.621-49.779 61.242 1.113 10.841 5.271 20.883 11.932 29.183l-52.459 72.98c-7.863-2.895-16.34-3.99-24.916-3.108-13.791 1.419-25.892 7.793-34.749 17.159l-69.583-36.825a55.61 55.61 0 0 0 .992-17.571c-1.522-14.832-8.722-28.183-20.273-37.595-11.558-9.416-26.084-13.76-40.911-12.238-30.591 3.148-52.922 30.621-49.78 61.242 1.032 10.05 4.678 19.415 10.51 27.341l-54.341 69.303c-8.463-3.529-17.718-4.918-27.088-3.955-30.591 3.147-52.922 30.62-49.78 61.242 1.522 14.832 8.723 28.183 20.274 37.595 10.043 8.183 22.328 12.537 35.104 12.537a56.73 56.73 0 0 0 5.808-.299c12.033-1.238 22.777-6.251 31.206-13.727l67.944 44.055a55.563 55.563 0 0 0-2.251 22.343c1.522 14.832 8.723 28.183 20.274 37.595 10.043 8.183 22.329 12.537 35.104 12.537 1.927 0 3.865-.099 5.808-.299 30.591-3.147 52.921-30.621 49.779-61.242-1.522-14.832-8.722-28.183-20.273-37.595-11.558-9.416-26.083-13.762-40.911-12.238-12.033 1.238-22.777 6.251-31.206 13.728l-67.944-44.055a55.563 55.563 0 0 0 2.25-22.343c-1.032-10.05-4.677-19.416-10.51-27.341l54.341-69.303a55.187 55.187 0 0 0 21.28 4.254c1.927 0 3.865-.099 5.808-.299 13.791-1.419 25.892-7.792 34.748-17.159l69.583 36.825a55.639 55.639 0 0 0-.993 17.571c1.522 14.832 8.723 28.183 20.274 37.595 10.043 8.183 22.328 12.536 35.103 12.536 1.927 0 3.866-.099 5.809-.299 30.591-3.147 52.922-30.62 49.78-61.242-1.113-10.841-5.271-20.884-11.933-29.183l52.457-72.976a55.24 55.24 0 0 0 19.112 3.404 56.71 56.71 0 0 0 5.807-.299c30.588-3.149 52.919-30.622 49.778-61.243z" fill="#ffffff" opacity="1" class=""></path></g></svg>