<svg xmlns="http://www.w3.org/2000/svg" version="1.1" xmlns:xlink="http://www.w3.org/1999/xlink" width="512" height="512" x="0" y="0" viewBox="0 0 512 512" style="enable-background:new 0 0 512 512" xml:space="preserve" class=""><g><path d="M478.578 244.475H278.047c-3.81 0-7.42.78-10.829 1.961l56.305-56.305c6.306-6.306 9.759-14.706 9.759-23.64 0-8.935-3.454-17.335-9.759-23.64L190.282 9.609c-12.589-12.611-34.692-12.611-47.281 0L9.759 142.85C3.454 149.156 0 157.556 0 166.491s3.454 17.335 9.759 23.64l133.242 133.242c6.306 6.306 14.683 9.759 23.64 9.759s17.335-3.454 23.64-9.759l56.305-56.305c-1.181 3.409-1.961 7.019-1.961 10.829v200.531c0 18.427 14.995 33.422 33.422 33.422h200.531c18.427 0 33.422-14.995 33.422-33.422V277.897c0-18.427-14.995-33.422-33.422-33.422zm-296.184 26.893c-4.345 4.345-10.049 6.506-15.753 6.506s-11.408-2.161-15.753-6.506c-8.712-8.69-8.712-22.816 0-31.506 8.69-8.712 22.816-8.712 31.506 0 8.712 8.69 8.712 22.817 0 31.506zm0-89.124c-4.345 4.345-10.049 6.506-15.753 6.506-5.704 0-11.408-2.161-15.753-6.506-8.712-8.69-8.712-22.816 0-31.506 8.69-8.712 22.816-8.712 31.506 0 8.712 8.69 8.712 22.816 0 31.506zm0-89.125c-4.345 4.345-10.049 6.506-15.753 6.506-5.704 0-11.408-2.161-15.753-6.506-8.712-8.69-8.712-22.816 0-31.506 8.69-8.712 22.816-8.712 31.506 0 8.712 8.69 8.712 22.816 0 31.506zm129.075 374.168c-12.277 0-22.281-9.982-22.281-22.281s10.004-22.281 22.281-22.281 22.281 9.982 22.281 22.281-10.004 22.281-22.281 22.281zm0-133.687c-12.277 0-22.281-9.982-22.281-22.281s10.004-22.281 22.281-22.281 22.281 9.982 22.281 22.281-10.004 22.281-22.281 22.281zm66.844 66.844c-12.277 0-22.281-9.982-22.281-22.281s10.004-22.281 22.281-22.281 22.281 9.982 22.281 22.281-10.004 22.281-22.281 22.281zm66.843 66.843c-12.277 0-22.281-9.982-22.281-22.281s10.004-22.281 22.281-22.281 22.281 9.982 22.281 22.281c.001 12.299-10.004 22.281-22.281 22.281zm0-133.687c-12.277 0-22.281-9.982-22.281-22.281s10.004-22.281 22.281-22.281 22.281 9.982 22.281 22.281c.001 12.299-10.004 22.281-22.281 22.281z" fill="#ffffff" opacity="1" class=""></path></g></svg>