<svg xmlns="http://www.w3.org/2000/svg" version="1.1" xmlns:xlink="http://www.w3.org/1999/xlink" xmlns:svgjs="http://svgjs.com/svgjs" width="512" height="512" x="0" y="0" viewBox="0 0 32 32" style="enable-background:new 0 0 512 512" xml:space="preserve" class=""><g><path d="M12 15h-2v-1H6a1 1 0 0 1-1-1v-2h2v1h4a1 1 0 0 1 1 1zM15 11h2v4h-2zM22 15h-2v-2a1 1 0 0 1 1-1h4v-1h2v2a1 1 0 0 1-1 1h-4zM24 30H8a3 3 0 0 1-3-3h22a3 3 0 0 1-3 3zM23 16H9a2 2 0 0 0-2 2v8h18v-8a2 2 0 0 0-2-2zm-9.18 7.116a.5.5 0 0 1-.64.768l-3-2.5a.5.5 0 0 1 0-.768l3-2.5a.5.5 0 1 1 .64.768L11.281 21zm2.17.482a.5.5 0 1 1-.98-.196l1-5a.499.499 0 1 1 .98.195zm5.83-2.214-3 2.5a.498.498 0 0 1-.704-.063.5.5 0 0 1 .064-.705L20.719 21l-2.54-2.116a.5.5 0 0 1 .641-.768l3 2.5a.5.5 0 0 1 0 .768zM10 4V3a1 1 0 0 0-1-1H3a1 1 0 0 0-1 1v1zM2 5v5a1 1 0 0 0 1 1h6a1 1 0 0 0 1-1V5zM20 4V3a1 1 0 0 0-1-1h-6a1 1 0 0 0-1 1v1zM12 5v5a1 1 0 0 0 1 1h6a1 1 0 0 0 1-1V5zM30 4V3a1 1 0 0 0-1-1h-6a1 1 0 0 0-1 1v1zM22 5v5a1 1 0 0 0 1 1h6a1 1 0 0 0 1-1V5z" fill="#ffffff" data-original="#000000" class=""></path></g></svg>