<svg xmlns="http://www.w3.org/2000/svg" version="1.1" xmlns:xlink="http://www.w3.org/1999/xlink" xmlns:svgjs="http://svgjs.com/svgjs" width="24" height="24" x="0" y="0" viewBox="0 0 512 512" style="enable-background:new 0 0 512 512" xml:space="preserve" class=""><g><path d="M422 171H298.42c-6.192-17.459-22.865-30-42.42-30s-36.228 12.541-42.42 30H90v101h30v-71h93.58c6.192 17.459 22.865 30 42.42 30s36.228-12.541 42.42-30H392v71h30zM442 452h70V302H302v150h70v30h-40v30h150v-30h-40zM140 452h70V302H0v150h70v30H30v30h150v-30h-40zM207.033 79.618l20.689 21.725C235.403 94.028 245.446 90 256 90s20.597 4.028 28.277 11.343l20.689-21.725C291.682 66.967 274.292 60 256 60s-35.682 6.967-48.967 19.618zM256 30c26.03 0 50.768 9.906 69.655 27.894l20.689-21.725C321.854 12.845 289.769 0 256 0s-65.854 12.845-90.345 36.169l20.689 21.725C205.232 39.906 229.97 30 256 30z" fill="#ffffff" data-original="#000000" class="" opacity="1"></path></g></svg>