<svg xmlns="http://www.w3.org/2000/svg" version="1.1" xmlns:xlink="http://www.w3.org/1999/xlink" xmlns:svgjs="http://svgjs.com/svgjs" width="24" height="24" x="0" y="0" viewBox="0 0 32 32" style="enable-background:new 0 0 512 512" xml:space="preserve" class=""><g><circle cx="26" cy="12" r="1" fill="#ffffff" data-original="#000000" opacity="1" class=""></circle><circle cx="26" cy="6" r="1" fill="#ffffff" data-original="#000000" opacity="1" class=""></circle><circle cx="23" cy="12" r="1" fill="#ffffff" data-original="#000000" opacity="1" class=""></circle><circle cx="23" cy="6" r="1" fill="#ffffff" data-original="#000000" opacity="1" class=""></circle><path d="M30 5c0-1.654-1.346-3-3-3h-9c-1.654 0-3 1.346-3 3H9a1 1 0 0 0-1 1v10H5c-1.654 0-3 1.346-3 3v2c0 .771.3 1.468.78 2A2.977 2.977 0 0 0 2 25v2c0 1.654 1.346 3 3 3h9c1.654 0 3-1.346 3-3h6a1 1 0 0 0 1-1V16h3c1.654 0 3-1.346 3-3v-2c0-.771-.3-1.468-.78-2 .48-.532.78-1.229.78-2zM17 5a1 1 0 0 1 1-1h9a1 1 0 0 1 1 1v2a1 1 0 0 1-1 1h-9a1 1 0 0 1-1-1zM4 19a1 1 0 0 1 1-1h9a1 1 0 0 1 1 1v2a1 1 0 0 1-1 1H5a1 1 0 0 1-1-1zm11 8a1 1 0 0 1-1 1H5a1 1 0 0 1-1-1v-2a1 1 0 0 1 1-1h9a1 1 0 0 1 1 1zm7-2h-5c0-.771-.3-1.468-.78-2 .48-.532.78-1.229.78-2v-2c0-1.654-1.346-3-3-3h-4V7h5c0 .771.3 1.468.78 2a2.977 2.977 0 0 0-.78 2v2c0 1.654 1.346 3 3 3h4zm6-12a1 1 0 0 1-1 1h-9a1 1 0 0 1-1-1v-2a1 1 0 0 1 1-1h9a1 1 0 0 1 1 1z" fill="#ffffff" data-original="#000000" opacity="1" class=""></path><circle cx="13" cy="26" r="1" fill="#ffffff" data-original="#000000" opacity="1" class=""></circle><circle cx="13" cy="20" r="1" fill="#ffffff" data-original="#000000" opacity="1" class=""></circle><circle cx="10" cy="26" r="1" fill="#ffffff" data-original="#000000" opacity="1" class=""></circle><circle cx="10" cy="20" r="1" fill="#ffffff" data-original="#000000" opacity="1" class=""></circle></g></svg>