<svg xmlns="http://www.w3.org/2000/svg" version="1.1" xmlns:xlink="http://www.w3.org/1999/xlink" width="512" height="512" x="0" y="0" viewBox="0 0 512 512" style="enable-background:new 0 0 512 512" xml:space="preserve" class=""><g><path fill-rule="evenodd" d="M220.856 312.68a175.614 175.614 0 0 1 70.107 0c-8.256 27.477-22.127 44.263-35.054 44.263s-26.75-16.786-35.053-44.263zm-14.295 194.347h98.7a10.093 10.093 0 0 0 7.407-3.166 10.285 10.285 0 0 0 2.83-7.506v-.009a59.491 59.491 0 0 0-38.025-52.935 32.035 32.035 0 1 0-43.121 0 59.491 59.491 0 0 0-38.026 52.93 10.3 10.3 0 0 0 2.83 7.52 10.194 10.194 0 0 0 7.408 3.166zM10.2 317.624h98.7a10.239 10.239 0 0 0 10.238-10.676 59.51 59.51 0 0 0-37.979-52.93 32.057 32.057 0 1 0-43.168 0 59.437 59.437 0 0 0-37.978 52.92 10.09 10.09 0 0 0 2.787 7.525 10.283 10.283 0 0 0 7.407 3.161zm410.169-87.28a31.847 31.847 0 0 0 10.474 23.669 59.49 59.49 0 0 0-38.026 52.935 10.33 10.33 0 0 0 2.831 7.52 10.215 10.215 0 0 0 7.407 3.156h98.7a10.138 10.138 0 0 0 7.407-3.156 10.326 10.326 0 0 0 2.831-7.525 59.511 59.511 0 0 0-37.979-52.93 32.044 32.044 0 1 0-53.642-23.669zM206.561 124.3h98.7a10.127 10.127 0 0 0 7.407-3.161 10.294 10.294 0 0 0 2.83-7.51v-.01A59.485 59.485 0 0 0 277.47 60.69a32.035 32.035 0 1 0-43.121 0 59.481 59.481 0 0 0-38.026 52.925 10.313 10.313 0 0 0 2.83 7.525 10.209 10.209 0 0 0 7.408 3.161zM69.507 173.7A205.192 205.192 0 0 1 179.952 68.046 8 8 0 0 1 185.9 82.9a190.46 190.46 0 0 0-101.767 97.4 8.1 8.1 0 0 1-7.313 4.7 7.958 7.958 0 0 1-3.3-.717 8.046 8.046 0 0 1-4.01-10.587zm251.98-101.2a8.026 8.026 0 0 1 10.427-4.453 205.326 205.326 0 0 1 110.4 105.7 7.992 7.992 0 0 1-3.963 10.592 8.173 8.173 0 0 1-3.3.712 8.043 8.043 0 0 1-7.313-4.7A190.4 190.4 0 0 0 325.922 82.9a8.019 8.019 0 0 1-4.435-10.4zm-2.5 379.617a7.994 7.994 0 0 1-2.548-15.578 189.577 189.577 0 0 0 110.067-98.325 8.005 8.005 0 0 1 14.484 6.822 205.715 205.715 0 0 1-119.456 106.655 7.876 7.876 0 0 1-2.547.425zm-123.561-15.579a8 8 0 0 1-2.594 15.578 7.882 7.882 0 0 1-2.548-.425A205.715 205.715 0 0 1 70.828 345.035a8.005 8.005 0 0 1 14.484-6.822 189.666 189.666 0 0 0 110.114 98.325zm-11.181-110.365a99.615 99.615 0 0 0 36.375 24.254 98.026 98.026 0 0 1-7.643-13.464 145.533 145.533 0 0 1-7.549-20.15 113.163 113.163 0 0 0-21.183 9.36zm36.375-160.685a99.69 99.69 0 0 0-36.375 24.259 113.163 113.163 0 0 0 21.183 9.36 145.34 145.34 0 0 1 7.549-20.15 98.392 98.392 0 0 1 7.643-13.469zm106.953 24.259a98.916 98.916 0 0 0-36.373-24.259 98.5 98.5 0 0 1 7.643 13.469 139.7 139.7 0 0 1 7.548 20.15 110.51 110.51 0 0 0 21.183-9.36zM291.2 350.427a98.842 98.842 0 0 0 36.374-24.254 110.51 110.51 0 0 0-21.183-9.36 139.875 139.875 0 0 1-7.548 20.15 98.13 98.13 0 0 1-7.643 13.464zm-77.656-84.468h84.732a206.827 206.827 0 0 1-3.491 31.2 189.751 189.751 0 0 0-77.7 0 200.864 200.864 0 0 1-3.538-31.2zm-15.993 0a221.179 221.179 0 0 0 4.009 35.309 128.68 128.68 0 0 0-27.46 12.337 98.655 98.655 0 0 1-16.843-47.646zm0-16h-40.292a98.659 98.659 0 0 1 16.841-47.644 128.731 128.731 0 0 0 27.457 12.338 221.153 221.153 0 0 0-4.009 35.308zm116.719 0a221.267 221.267 0 0 0-4.01-35.308 127.672 127.672 0 0 0 27.458-12.338 98.179 98.179 0 0 1 16.842 47.646zm40.29 16a98.175 98.175 0 0 1-16.842 47.646 127.622 127.622 0 0 0-27.458-12.337 221.293 221.293 0 0 0 4.01-35.309zm-98.65-43.182a186.582 186.582 0 0 0 38.875-4.02 206.768 206.768 0 0 1 3.491 31.2h-84.733a200.808 200.808 0 0 1 3.538-31.2 185.8 185.8 0 0 0 38.828 4.02zm0-63.8c12.927 0 26.8 16.786 35.054 44.263a175.614 175.614 0 0 1-70.107 0c8.302-27.477 22.125-44.263 35.052-44.263z" fill="#ffffff" opacity="1" class=""></path></g></svg>