<svg xmlns="http://www.w3.org/2000/svg" version="1.1" xmlns:xlink="http://www.w3.org/1999/xlink" width="512" height="512" x="0" y="0" viewBox="0 0 32 32" style="enable-background:new 0 0 512 512" xml:space="preserve" class=""><g><path d="M7 21c-2.757 0-5-2.243-5-5s2.243-5 5-5 5 2.243 5 5-2.243 5-5 5zm0-8c-1.654 0-3 1.346-3 3s1.346 3 3 3 3-1.346 3-3-1.346-3-3-3z" fill="#ffffff" opacity="1" class=""></path><path d="M10 17H4a1 1 0 1 1 0-2h6a1 1 0 1 1 0 2zM25 21c-2.757 0-5-2.243-5-5s2.243-5 5-5 5 2.243 5 5-2.243 5-5 5zm0-8c-1.654 0-3 1.346-3 3s1.346 3 3 3 3-1.346 3-3-1.346-3-3-3z" fill="#ffffff" opacity="1" class=""></path><path d="M28 17h-6a1 1 0 1 1 0-2h6a1 1 0 1 1 0 2zM21.001 11a1 1 0 0 1-.82-.426l-.418-.597C18.883 8.721 17.51 8 16 8s-2.883.72-3.763 1.977l-.418.597a1 1 0 1 1-1.638-1.148l.418-.596C11.859 7.03 13.829 6 16 6s4.14 1.031 5.401 2.83l.418.596A1 1 0 0 1 21.001 11z" fill="#ffffff" opacity="1" class=""></path><path d="M21 11h-2a1 1 0 1 1 0-2h1V8a1 1 0 1 1 2 0v2a1 1 0 0 1-1 1zM16 26c-2.172 0-4.14-1.031-5.401-2.83l-.418-.596a1 1 0 0 1 1.638-1.148l.418.597C13.117 23.279 14.49 24 16 24s2.883-.72 3.763-1.977l.418-.597a1 1 0 0 1 1.638 1.148l-.418.596C20.141 24.97 18.171 26 16 26z" fill="#ffffff" opacity="1" class=""></path><path d="M11 25a1 1 0 0 1-1-1v-2a1 1 0 0 1 1-1h2a1 1 0 1 1 0 2h-1v1a1 1 0 0 1-1 1z" fill="#ffffff" opacity="1" class=""></path></g></svg>